<mxfile host="app.diagrams.net" agent="Mozilla/5.0 (Windows NT 10.0; Win64; x64) AppleWebKit/537.36 (KHTML, like Gecko) Chrome/135.0.0.0 Safari/537.36" version="26.2.12">
  <diagram id="C5RBs43oDa-KdzZeNtuy" name="Page-1">
    <mxGraphModel dx="1855" dy="959" grid="1" gridSize="10" guides="1" tooltips="1" connect="1" arrows="1" fold="1" page="1" pageScale="1" pageWidth="827" pageHeight="1169" math="0" shadow="0">
      <root>
        <mxCell id="WIyWlLk6GJQsqaUBKTNV-0" />
        <mxCell id="WIyWlLk6GJQsqaUBKTNV-1" parent="WIyWlLk6GJQsqaUBKTNV-0" />
        <mxCell id="I7_EY7_r3Ra_kStg1MDq-1" value="" style="edgeStyle=orthogonalEdgeStyle;rounded=0;orthogonalLoop=1;jettySize=auto;html=1;" edge="1" parent="WIyWlLk6GJQsqaUBKTNV-1" source="WIyWlLk6GJQsqaUBKTNV-3" target="I7_EY7_r3Ra_kStg1MDq-0">
          <mxGeometry relative="1" as="geometry" />
        </mxCell>
        <mxCell id="WIyWlLk6GJQsqaUBKTNV-3" value="Client upload pdf file" style="rounded=1;whiteSpace=wrap;html=1;fontSize=12;glass=0;strokeWidth=1;shadow=0;" parent="WIyWlLk6GJQsqaUBKTNV-1" vertex="1">
          <mxGeometry x="354" y="80" width="120" height="40" as="geometry" />
        </mxCell>
        <mxCell id="I7_EY7_r3Ra_kStg1MDq-3" value="" style="edgeStyle=orthogonalEdgeStyle;rounded=0;orthogonalLoop=1;jettySize=auto;html=1;" edge="1" parent="WIyWlLk6GJQsqaUBKTNV-1" source="I7_EY7_r3Ra_kStg1MDq-0">
          <mxGeometry relative="1" as="geometry">
            <mxPoint x="574" y="210" as="targetPoint" />
          </mxGeometry>
        </mxCell>
        <mxCell id="I7_EY7_r3Ra_kStg1MDq-4" value="Not valid" style="edgeLabel;html=1;align=center;verticalAlign=middle;resizable=0;points=[];" vertex="1" connectable="0" parent="I7_EY7_r3Ra_kStg1MDq-3">
          <mxGeometry x="0.168" y="1" relative="1" as="geometry">
            <mxPoint as="offset" />
          </mxGeometry>
        </mxCell>
        <mxCell id="I7_EY7_r3Ra_kStg1MDq-6" value="" style="edgeStyle=orthogonalEdgeStyle;rounded=0;orthogonalLoop=1;jettySize=auto;html=1;" edge="1" parent="WIyWlLk6GJQsqaUBKTNV-1" source="I7_EY7_r3Ra_kStg1MDq-0">
          <mxGeometry relative="1" as="geometry">
            <mxPoint x="254" y="210" as="targetPoint" />
            <Array as="points">
              <mxPoint x="304" y="210" />
              <mxPoint x="304" y="210" />
            </Array>
          </mxGeometry>
        </mxCell>
        <mxCell id="I7_EY7_r3Ra_kStg1MDq-7" value="Valid" style="edgeLabel;html=1;align=center;verticalAlign=middle;resizable=0;points=[];" vertex="1" connectable="0" parent="I7_EY7_r3Ra_kStg1MDq-6">
          <mxGeometry x="-0.032" y="-4" relative="1" as="geometry">
            <mxPoint as="offset" />
          </mxGeometry>
        </mxCell>
        <mxCell id="I7_EY7_r3Ra_kStg1MDq-0" value="Server verify file type" style="whiteSpace=wrap;html=1;rounded=1;glass=0;strokeWidth=1;shadow=0;" vertex="1" parent="WIyWlLk6GJQsqaUBKTNV-1">
          <mxGeometry x="354" y="190" width="120" height="40" as="geometry" />
        </mxCell>
        <mxCell id="I7_EY7_r3Ra_kStg1MDq-16" value="" style="edgeStyle=orthogonalEdgeStyle;rounded=0;orthogonalLoop=1;jettySize=auto;html=1;" edge="1" parent="WIyWlLk6GJQsqaUBKTNV-1" source="I7_EY7_r3Ra_kStg1MDq-10" target="I7_EY7_r3Ra_kStg1MDq-15">
          <mxGeometry relative="1" as="geometry" />
        </mxCell>
        <mxCell id="I7_EY7_r3Ra_kStg1MDq-10" value="Extracting pdf pages to pngs" style="ellipse;shape=cloud;whiteSpace=wrap;html=1;" vertex="1" parent="WIyWlLk6GJQsqaUBKTNV-1">
          <mxGeometry x="140" y="170" width="120" height="80" as="geometry" />
        </mxCell>
        <mxCell id="I7_EY7_r3Ra_kStg1MDq-14" style="edgeStyle=orthogonalEdgeStyle;rounded=0;orthogonalLoop=1;jettySize=auto;html=1;entryX=1;entryY=0.5;entryDx=0;entryDy=0;exitX=0.503;exitY=0.14;exitDx=0;exitDy=0;exitPerimeter=0;" edge="1" parent="WIyWlLk6GJQsqaUBKTNV-1" source="I7_EY7_r3Ra_kStg1MDq-12" target="WIyWlLk6GJQsqaUBKTNV-3">
          <mxGeometry relative="1" as="geometry">
            <Array as="points">
              <mxPoint x="630" y="100" />
            </Array>
          </mxGeometry>
        </mxCell>
        <mxCell id="I7_EY7_r3Ra_kStg1MDq-12" value="Retrun response&lt;div&gt;stoping proccess.&lt;/div&gt;" style="ellipse;shape=cloud;whiteSpace=wrap;html=1;" vertex="1" parent="WIyWlLk6GJQsqaUBKTNV-1">
          <mxGeometry x="570" y="170" width="120" height="80" as="geometry" />
        </mxCell>
        <mxCell id="I7_EY7_r3Ra_kStg1MDq-18" value="" style="edgeStyle=orthogonalEdgeStyle;rounded=0;orthogonalLoop=1;jettySize=auto;html=1;" edge="1" parent="WIyWlLk6GJQsqaUBKTNV-1" source="I7_EY7_r3Ra_kStg1MDq-15" target="I7_EY7_r3Ra_kStg1MDq-17">
          <mxGeometry relative="1" as="geometry" />
        </mxCell>
        <mxCell id="I7_EY7_r3Ra_kStg1MDq-32" value="" style="edgeStyle=orthogonalEdgeStyle;rounded=0;orthogonalLoop=1;jettySize=auto;html=1;" edge="1" parent="WIyWlLk6GJQsqaUBKTNV-1" source="I7_EY7_r3Ra_kStg1MDq-15" target="I7_EY7_r3Ra_kStg1MDq-31">
          <mxGeometry relative="1" as="geometry" />
        </mxCell>
        <mxCell id="I7_EY7_r3Ra_kStg1MDq-35" value="If last page" style="edgeLabel;html=1;align=center;verticalAlign=middle;resizable=0;points=[];" vertex="1" connectable="0" parent="I7_EY7_r3Ra_kStg1MDq-32">
          <mxGeometry x="-0.125" y="-3" relative="1" as="geometry">
            <mxPoint x="-5" y="-7" as="offset" />
          </mxGeometry>
        </mxCell>
        <mxCell id="I7_EY7_r3Ra_kStg1MDq-15" value="Send page to&lt;div&gt;AI to OCR and&amp;nbsp;&lt;/div&gt;&lt;div&gt;parse data&lt;/div&gt;" style="ellipse;shape=cloud;whiteSpace=wrap;html=1;" vertex="1" parent="WIyWlLk6GJQsqaUBKTNV-1">
          <mxGeometry x="140" y="370" width="120" height="80" as="geometry" />
        </mxCell>
        <mxCell id="I7_EY7_r3Ra_kStg1MDq-28" value="" style="edgeStyle=orthogonalEdgeStyle;rounded=0;orthogonalLoop=1;jettySize=auto;html=1;" edge="1" parent="WIyWlLk6GJQsqaUBKTNV-1" source="I7_EY7_r3Ra_kStg1MDq-17" target="I7_EY7_r3Ra_kStg1MDq-27">
          <mxGeometry relative="1" as="geometry" />
        </mxCell>
        <mxCell id="I7_EY7_r3Ra_kStg1MDq-17" value="Store png data" style="shape=cylinder3;whiteSpace=wrap;html=1;boundedLbl=1;backgroundOutline=1;size=15;" vertex="1" parent="WIyWlLk6GJQsqaUBKTNV-1">
          <mxGeometry x="340" y="380" width="120" height="60" as="geometry" />
        </mxCell>
        <mxCell id="I7_EY7_r3Ra_kStg1MDq-19" style="edgeStyle=orthogonalEdgeStyle;rounded=0;orthogonalLoop=1;jettySize=auto;html=1;entryX=0.55;entryY=0.95;entryDx=0;entryDy=0;entryPerimeter=0;" edge="1" parent="WIyWlLk6GJQsqaUBKTNV-1" source="I7_EY7_r3Ra_kStg1MDq-17" target="I7_EY7_r3Ra_kStg1MDq-15">
          <mxGeometry relative="1" as="geometry">
            <Array as="points">
              <mxPoint x="600" y="410" />
              <mxPoint x="600" y="470" />
              <mxPoint x="206" y="470" />
            </Array>
          </mxGeometry>
        </mxCell>
        <mxCell id="I7_EY7_r3Ra_kStg1MDq-21" value="Looping until last png file" style="edgeLabel;html=1;align=center;verticalAlign=middle;resizable=0;points=[];" vertex="1" connectable="0" parent="I7_EY7_r3Ra_kStg1MDq-19">
          <mxGeometry x="-0.0341" y="-1" relative="1" as="geometry">
            <mxPoint x="-107" as="offset" />
          </mxGeometry>
        </mxCell>
        <mxCell id="I7_EY7_r3Ra_kStg1MDq-34" value="" style="edgeStyle=orthogonalEdgeStyle;rounded=0;orthogonalLoop=1;jettySize=auto;html=1;" edge="1" parent="WIyWlLk6GJQsqaUBKTNV-1" source="I7_EY7_r3Ra_kStg1MDq-27" target="I7_EY7_r3Ra_kStg1MDq-33">
          <mxGeometry relative="1" as="geometry" />
        </mxCell>
        <mxCell id="I7_EY7_r3Ra_kStg1MDq-27" value="Extract by regex&lt;div&gt;patterns the&lt;/div&gt;&lt;div&gt;relevant data&lt;/div&gt;" style="shape=trapezoid;perimeter=trapezoidPerimeter;whiteSpace=wrap;html=1;fixedSize=1;" vertex="1" parent="WIyWlLk6GJQsqaUBKTNV-1">
          <mxGeometry x="540" y="380" width="120" height="60" as="geometry" />
        </mxCell>
        <mxCell id="I7_EY7_r3Ra_kStg1MDq-36" value="" style="edgeStyle=orthogonalEdgeStyle;rounded=0;orthogonalLoop=1;jettySize=auto;html=1;" edge="1" parent="WIyWlLk6GJQsqaUBKTNV-1" source="I7_EY7_r3Ra_kStg1MDq-31" target="I7_EY7_r3Ra_kStg1MDq-15">
          <mxGeometry relative="1" as="geometry" />
        </mxCell>
        <mxCell id="I7_EY7_r3Ra_kStg1MDq-31" value="Quit extraction&lt;div&gt;proccess&lt;/div&gt;" style="ellipse;shape=cloud;whiteSpace=wrap;html=1;" vertex="1" parent="WIyWlLk6GJQsqaUBKTNV-1">
          <mxGeometry x="-60" y="370" width="120" height="80" as="geometry" />
        </mxCell>
        <mxCell id="I7_EY7_r3Ra_kStg1MDq-39" style="edgeStyle=orthogonalEdgeStyle;rounded=0;orthogonalLoop=1;jettySize=auto;html=1;entryX=0.5;entryY=0;entryDx=0;entryDy=0;exitX=0.4;exitY=0.1;exitDx=0;exitDy=0;exitPerimeter=0;" edge="1" parent="WIyWlLk6GJQsqaUBKTNV-1" source="I7_EY7_r3Ra_kStg1MDq-33" target="WIyWlLk6GJQsqaUBKTNV-3">
          <mxGeometry relative="1" as="geometry">
            <mxPoint x="800" y="30" as="targetPoint" />
            <Array as="points">
              <mxPoint x="800" y="378" />
              <mxPoint x="800" y="60" />
              <mxPoint x="414" y="60" />
            </Array>
          </mxGeometry>
        </mxCell>
        <mxCell id="I7_EY7_r3Ra_kStg1MDq-33" value="Return response&amp;nbsp;&lt;div&gt;to client&amp;nbsp;&lt;/div&gt;" style="ellipse;shape=cloud;whiteSpace=wrap;html=1;" vertex="1" parent="WIyWlLk6GJQsqaUBKTNV-1">
          <mxGeometry x="740" y="370" width="120" height="80" as="geometry" />
        </mxCell>
      </root>
    </mxGraphModel>
  </diagram>
</mxfile>
